<svg id="Layer_1" data-name="Layer 1" xmlns="http://www.w3.org/2000/svg" viewBox="0 0 1066 1066"><defs><style>.cls-1{fill:#cfa123;}.cls-2{fill:#4b197c;}.cls-3{fill:#fff;}.cls-4{fill:none;stroke:#fff;stroke-miterlimit:10;stroke-width:10px;}</style></defs><title>logo-pardee-rand</title><path class="cls-1" d="M0 0h1066v1066H0z"/><path class="cls-2" d="M0 0h1066v593H0z"/><path class="cls-3" d="M203.63 728.39c.38 19.38-1.71 35.34-14.82 50.54s-33.06 23.94-53 23.94c-40.28 0-73.72-33.44-73.72-73.72a74.64 74.64 0 0 1 74.67-74.48c25.08 0 45.41 11.21 60.61 31l-11.59 10.83c-12-16.91-28.12-27-49.21-27C103.88 669.48 78 697 78 729.34a57.72 57.72 0 0 0 16.72 40.47c10.45 10.45 25.65 18.24 40.66 18.24 24.89 0 51.11-18.24 51.11-44.84H144v-14.82zM242.2 800.4h-16V657.13H247c27.17 0 52.44 7.22 52.44 39.53 0 22-13.87 37.62-35.91 39.52l45.6 64.22h-19.62l-43.32-62.89h-4zm0-76.95h4.94c18.05 0 36.29-3.42 36.29-25.66 0-23.55-17.29-25.83-36.48-25.83h-4.75zM350.68 759.74l-17.29 40.66h-17.48L382 650.29l64.45 150.11h-17.68l-16.91-40.66zm31-72.2l-24.51 57.38h48.45zM462 657.13h27c21.47 0 39 2.85 55.86 17.29 16.34 14.07 23.75 33.25 23.75 54.54 0 20.9-7.6 39.33-23.37 53.39-17.1 15.2-34.2 18-56.62 18H462zm27.55 128.45c17.48 0 32.11-2.47 45.22-14.82a56.73 56.73 0 0 0 17.86-42c0-16.34-6.27-32.11-18.62-42.94-13.09-11.58-27.53-13.82-44.44-13.82H478v113.58zM602.62 742.45c0 10.64-.38 22.8 6.27 31.92 6.27 8.74 18.43 13.68 28.88 13.68 10.26 0 21.47-4.75 28.12-12.73 7.6-9.12 7-21.66 7-32.87v-85.32h16v89.69c0 15.58-1.14 27.93-12.54 39.71-9.88 10.64-24.13 16.34-38.57 16.34-13.49 0-27.36-5.13-37-14.63-12.54-12-14.06-25.08-14.06-41.42v-89.69h16zM733 759.74l-17.33 40.66h-17.48l66.12-150.11 64.41 150.11h-17.67l-16.91-40.66zm31-72.2l-24.51 57.38h48.45zM868.05 800.4h-16V672h-34.54v-14.87H903V672h-35zM919.35 657.13h74.29V672h-58.33v42.56h56.62v14.82h-56.62v56.24h58.33v14.78h-74.29zM134.42 884.09c-5.7-9.88-12.54-15.58-24.7-15.58C97 868.51 86 877.63 86 890.74c0 12.35 12.73 18 22.42 22.42l9.5 4.18c18.62 8.17 34.39 17.48 34.39 40.28 0 25.08-20.14 44.27-45 44.27-23 0-40.09-14.82-44.65-37l15.58-4.37c2.09 14.63 13.3 26.6 28.69 26.6s29.45-11.78 29.45-27.93c0-16.72-13.11-22.42-26.41-28.5l-8.74-3.8C84.45 919.24 70 910.69 70 890.17c0-22.23 18.81-36.48 40.09-36.48 16 0 29.45 8.17 37.05 22.23zM283 887.51c-11.4-11.78-27.17-19-43.7-19-31.92 0-57.76 27.74-57.76 59.28s26 59.28 58.14 59.28c16.15 0 31.92-7.6 43.32-19v19.76a73.78 73.78 0 0 1-42.75 14.06c-40.47 0-74.68-32.87-74.68-73.53a74.93 74.93 0 0 1 74.68-74.67A69.16 69.16 0 0 1 283 867.75zM400 914.3v-58.14h16v143.26h-16v-70.3h-73.31v70.3h-16V856.16h16v58.14zM587.75 928c0 41.23-33.82 73.91-74.67 73.91s-74.67-32.7-74.67-73.91c0-41 33.82-74.29 74.67-74.29s74.67 33.23 74.67 74.29zm-133.38-.19c0 32.3 26.22 59.28 58.71 59.28s58.71-27 58.71-59.28c0-32.49-25.84-59.28-58.71-59.28s-58.71 26.77-58.71 59.26zM751.53 928c0 41.23-33.82 73.91-74.67 73.91s-74.67-32.7-74.67-73.91c0-41 33.82-74.29 74.67-74.29s74.67 33.23 74.67 74.29zm-133.38-.19c0 32.3 26.22 59.28 58.71 59.28s58.71-27 58.71-59.28c0-32.49-25.84-59.28-58.71-59.28s-58.71 26.77-58.71 59.26zM789.15 984.6h39.52v14.82h-55.48V856.16h16zM88.74 273.45H66.9v-196h32.24c16.9 0 34.32.52 48.62 10.4 14.56 10.14 22.1 27.3 22.1 44.71 0 15.86-6.5 32-18.72 42.12-13.26 10.92-30.16 13-46.54 13H88.74zm0-106.08h14.56c24.18 0 44.72-7.28 44.72-35.36 0-32-25.74-34.31-51.22-34.31h-8.06zM206.26 217.81l-23.66 55.64h-23.92l90.48-205.39 88.14 205.39h-24.18L290 217.81zM248.64 119l-33.54 78.53h66.3zM380.46 273.45h-21.84v-196H387c37.18 0 71.76 9.88 71.76 54.07 0 30.16-19 51.48-49.14 54.08L472 273.45h-26.8l-59.28-86.06h-5.46zm0-105.3h6.76c24.7 0 49.66-4.68 49.66-35.1 0-32.23-23.66-35.35-49.92-35.35h-6.5zM499.54 77.42h36.91c29.38 0 53.3 3.9 76.44 23.66 22.36 19.23 32.5 45.49 32.5 74.61 0 28.6-10.4 53.82-32 73.06-23.4 20.8-46.8 24.7-77.48 24.7h-36.37zm37.69 175.75c23.92 0 43.94-3.38 61.88-20.28 16.12-15.08 24.44-35.62 24.44-57.46 0-22.36-8.58-43.94-25.48-58.76-17.94-15.85-37.7-19-60.84-19h-15.85v155.5zM671.13 77.42h101.66V97.7H693v58.23h77.48v20.28H693v77h79.82v20.28H671.13zM810 77.42h101.63V97.7h-79.82v58.23h77.48v20.28h-77.48v77h79.82v20.28H810zM89.74 533.9H67.9v-196h28.34c37.18 0 71.76 9.88 71.76 54.08 0 30.16-19 51.48-49.14 54.08l62.4 87.88h-26.78l-59.28-86.1h-5.46zm0-105.3h6.76c24.7 0 49.66-4.68 49.66-35.1 0-32.24-23.66-35.36-49.92-35.36h-6.5zM238.2 478.26l-23.66 55.64h-23.92l90.48-205.4 88.14 205.4h-24.18l-23.14-55.64zm42.38-98.8L247 458h66.3zM391.86 329.54L544.73 489.7V337.86h21.84v204.88L413.7 382.84V533.9h-21.84zM607.4 337.86h36.92c29.38 0 53.3 3.9 76.43 23.66 22.36 19.24 32.5 45.5 32.5 74.62 0 28.6-10.4 53.82-32 73.06-23.39 20.8-46.79 24.7-77.47 24.7H607.4zm37.7 175.76c23.92 0 43.94-3.38 61.88-20.28 16.11-15.08 24.44-35.62 24.44-57.46 0-22.36-8.59-43.94-25.48-58.76-17.94-15.86-37.7-19-60.84-19h-15.86v155.5z"/><path class="cls-4" d="M1 592.93h1065"/></svg>